PathFileType	4	(X/Y/Z)	C:/Users/beibeiliu/ov580/test_trc\sequence.5_training_dense_right.trc
DataRate	CameraRate	NumFrames	NumMarkers	Units	OrigDataRate	OrigDataStartFrame	OrigNumFrames
120	120	14	19	mm	120	127	336
Frame#	Time	ThumbCMC			ThumbMCP			ThumbIP			ThumbTip			IndexMCP			IndexPIP			IndexTip			MiddleMCP			MiddlePIP			MiddleTip			RingMCP			RingPIP			RingTip			PinkyMCP			PinkyPIP			PinkyTip			BackHand1			BackHand2			BackHand3	
		X0	Y0	Z0	X1	Y1	Z1	X2	Y2	Z2	X3	Y3	Z3	X4	Y4	Z4	X5	Y5	Z5	X6	Y6	Z6	X7	Y7	Z7	X8	Y8	Z8	X9	Y9	Z9	X10	Y10	Z10	X11	Y11	Z11	X12	Y12	Z12	X13	Y13	Z13	X14	Y14	Z14	X15	Y15	Z15	X16	Y16	Z16	X17	Y17	Z17	X18	Y18	Z18	
126	1.05	130.849	-72.7197	13.7852	151.334	-93.7146	1.99982	167.621	-102.18	-14.9331	185.002	-98.7249	-28.6519	138.402	-83.9969	-47.6786	161.629	-96.3884	-59.1428	183.316	-106.861	-58.6615	161.069	-71.0819	-50.7917	182.211	-85.1014	-35.743	173.231	-75.4157	-6.95112	175.266	-58.4069	-41.6223	185.661	-72.6076	-22.3001	171.862	-65.3521	2.28791	178.668	-42.7088	-32.7547	189.236	-58.0967	-16.2572	170.609	-59.8569	1.7745	136.251	-29.9972	-18.5839	130.742	-19.1701	8.44717	116.574	-47.0095	-4.25388	
127	1.05833	129.878	-75.3623	14.2966	152.362	-92.7409	-0.295456	168.044	-101.798	-12.4614	186.565	-99.501	-29.3896	141.396	-81.5587	-48.7185	158.522	-99.5133	-60.202	181.327	-111.173	-61.9138	157.794	-73.5532	-49.0253	182.573	-84.9958	-34.3045	170.89	-77.4368	-5.03263	171.472	-61.383	-40.2448	186.32	-73.6259	-17.8594	172.798	-66.2831	2.18375	182.364	-46.421	-32.5061	186.431	-61.2295	-12.8636	169.898	-58.944	5.12301	138.768	-30.3399	-17.9322	129.104	-24.2585	13.2504	119.583	-46.7637	0.375676	
128	1.06667	128.66	-79.2227	17.6813	151.171	-95.1394	4.13234	168.019	-102.064	-13.5846	188.689	-100.754	-31.9723	136.698	-83.0203	-49.4524	152.418	-92.0367	-62.5919	172.492	-105.29	-70.3832	155.015	-71.1824	-47.3156	180.273	-88.558	-36.4457	170.555	-79.9013	-5.47484	171.119	-62.8939	-40.4871	184.379	-75.4373	-19.1359	168.143	-68.3727	2.65757	181.259	-45.9816	-30.661	186.048	-62.5758	-16.2405	169.287	-62.119	1.19694	138.267	-32.1222	-16.7857	128.7	-22.8428	11.4799	118.615	-48.5847	2.44646	
129	1.075	130.931	-78.0841	14.2503	152.044	-96.6216	-0.288147	168.188	-105.478	-15.651	187.892	-101.995	-31.5078	135.808	-78.3869	-53.0464	144.972	-89.7501	-68.003	162.958	-98.9632	-81.9226	155.979	-73.2073	-50.9636	181.123	-85.4693	-39.0237	170.406	-83.2267	-7.32356	169.011	-60.3576	-39.8894	184.649	-73.5201	-23.7199	169.126	-68.0219	2.75495	174.068	-45.3746	-30.2609	185.723	-60.4151	-11.1486	168.735	-57.964	5.767	135.897	-32.8369	-14.0761	127.904	-27.4678	15.7141	115.953	-51.1919	1.46014	
130	1.08333	129.68	-78.3251	15.3067	152.893	-99.9403	-3.08936	168.785	-102.372	-20.1896	186.968	-97.7222	-33.4005	130.612	-75.5538	-51.5213	138.136	-84.9403	-70.9801	152.286	-87.2755	-89.9465	158.061	-68.2412	-52.0606	179.606	-84.4659	-40.8804	174.353	-82.7938	-12.0693	170.14	-57.9364	-40.0613	183.219	-73.6284	-21.9373	167.787	-69.4759	2.65151	174.639	-47.5948	-30.1404	185.781	-59.4061	-15.0751	166.604	-61.0145	6.20092	133.103	-34.2272	-14.0503	130.01	-25.0348	14.537	117.603	-51.2428	0.593322	
131	1.09167	129.586	-78.4825	11.6681	150.665	-97.8925	0.0643774	168.708	-104.69	-20.9491	185.172	-99.5952	-34.506	125.815	-75.4535	-49.878	132.334	-77.6803	-71.6348	140.208	-82.7906	-93.1131	152.64	-65.3934	-50.281	178.727	-83.5982	-43.2629	175.011	-80.0142	-11.9422	167.502	-55.3619	-39.7971	182.792	-72.7178	-24.0913	168.429	-67.698	1.4726	174.361	-44.3718	-31.343	182.573	-60.7494	-13.7685	167.745	-60.4569	5.28203	133.107	-33.7454	-11.4129	126.668	-26.2743	10.7091	116.32	-50.7725	-1.83948	
132	1.1	127.019	-81.2567	16.3869	148.742	-98.9493	-1.24888	165.307	-103.815	-23.4554	181.256	-95.8016	-36.3358	126.773	-67.8022	-49.182	130.969	-69.1927	-71.7776	133.105	-73.4666	-98.4191	148.851	-65.7636	-52.2224	178.089	-80.7198	-46.2708	176.784	-80.6011	-16.2682	166.752	-54.5155	-40.8076	181.248	-70.7053	-27.4131	166.391	-69.7453	-1.12333	171.443	-39.5938	-31.0942	180.453	-60.0582	-14.9303	164.036	-58.8464	0.00941584	131.338	-29.0422	-11.5344	127.557	-23.7379	15.7184	112.699	-49.7156	3.30953	
133	1.10833	125.755	-80.21	15.3155	148.41	-92.8867	-7.10197	161.944	-96.6519	-22.5695	178.79	-92.564	-38.7992	121.512	-66.9327	-52.3842	126.667	-66.1451	-73.9581	131.294	-60.9575	-97.2611	152.04	-59.3155	-52.8496	173.138	-77.4969	-50.8915	175.484	-78.0331	-16.9307	164.898	-48.7852	-40.9184	182.047	-64.6759	-26.9613	170.345	-64.382	-1.30342	173.575	-36.9777	-31.2554	180.986	-55.5971	-13.8471	163.274	-57.5047	-1.7143	131.069	-29.0329	-11.4912	122.423	-26.894	12.9839	112.241	-50.5429	1.88051	
134	1.11667	125.321	-73.8091	13.8063	146.163	-89.3623	-5.25131	161.05	-97.8921	-27.3201	177.269	-90.0841	-44.3577	120.448	-59.5938	-50.5768	121.795	-62.1463	-72.0833	125.731	-57.4827	-97.0221	146.799	-57.869	-54.1881	173.396	-72.6132	-49.8778	170.548	-74.2029	-14.5179	160.982	-47.3122	-42.7346	178.211	-62.7272	-29.8042	162.412	-64.6198	-2.11462	166.865	-32.6124	-31.4777	175.954	-54.336	-17.428	159.803	-55.3202	-1.59861	126.183	-26.2293	-8.50366	122.852	-23.885	19.3288	111.277	-43.7673	3.88683	
135	1.125	124.133	-74.5006	10.6416	146.001	-91.0551	-7.59072	160.896	-94.5155	-29.1125	175.569	-85.1357	-44.0912	117.462	-60.2817	-50.4938	122.896	-54.8777	-72.1868	125.152	-51.1113	-94.1055	148.524	-52.8154	-55.0786	172.735	-67.7519	-50.9874	173.112	-72.9118	-19.9708	162.196	-44.959	-43.7532	176.922	-60.7403	-27.5078	166.715	-60.9781	-4.67715	165.953	-30.6384	-30.9292	176.777	-50.0092	-16.3533	159.015	-51.592	0.614665	127.466	-23.9094	-11.7518	119.115	-21.5651	18.5386	111.117	-44.6212	-0.354493	
136	1.13333	124.618	-74.1459	12.5315	146.927	-85.0816	-8.95213	161.579	-87.725	-27.2116	177.013	-81.0666	-43.8375	119.855	-54.5879	-49.689	120.447	-56.8253	-72.891	126.276	-50.1477	-97.2514	147.42	-49.864	-54.4817	170.375	-65.8161	-54.3517	173.09	-69.7445	-21.5625	160.367	-38.1787	-42.2255	177.423	-55.2089	-30.1713	165.936	-59.2593	-3.04024	165.38	-28.1209	-32.0912	176.463	-46.4771	-17.0714	157.359	-50.893	-1.30717	125.278	-21.661	-11.9903	121.406	-19.2862	19.0233	109.112	-42.4762	-0.354883	
137	1.14167	126.025	-74.5414	11.1844	149.795	-85.0419	-10.445	165.189	-88.2413	-30.3618	180.481	-77.9933	-40.7644	120.605	-54.3519	-54.7657	124.547	-55.4101	-75.5368	129.662	-53.3808	-97.702	148.132	-48.7107	-54.5324	174.389	-66.3715	-50.857	172.36	-70.2334	-21.322	163.255	-38.1621	-43.746	178.258	-57.1038	-27.5686	163.89	-58.9045	-3.14516	167.537	-29.1155	-31.9262	177.605	-45.1247	-18.6139	160.213	-45.6775	2.35579	126.361	-17.9341	-10.0119	116.457	-22.2056	15.8104	108.933	-45.4706	-1.40328	
138	1.15	128.316	-74.1902	9.64888	153.572	-84.9619	-8.41332	171.016	-85.8802	-27.5791	189.453	-76.0376	-41.6208	125.708	-53.6675	-55.5601	132.841	-55.7681	-79.6288	145.51	-54.8092	-97.4983	151.569	-47.8308	-55.654	177.627	-62.5051	-47.9827	177.066	-63.2796	-19.9356	162.132	-35.4149	-40.813	182.301	-51.165	-25.4413	165.942	-56.758	-2.91314	168.401	-25.7761	-31.0933	178.98	-42.6174	-18.0937	161.821	-46.2454	2.84346	124.465	-20.9488	-12.8391	117.824	-19.1296	14.7228	111.073	-44.2877	0.991989	
139	1.15833	131.53	-70.3204	11.0073	157.802	-78.6215	-7.94574	176.648	-81.7913	-24.2603	191.207	-70.0147	-35.4081	131.319	-59.35	-56.4418	146.865	-60.0666	-78.3606	163.999	-62.0719	-90.5222	154.464	-47.4773	-53.8229	182.624	-58.5687	-44.6663	178.445	-59.5268	-15.5089	163.525	-35.8832	-39.3551	183.757	-47.0459	-25.7717	167.49	-51.4519	0.297555	170.918	-21.1401	-28.3682	181.752	-37.7439	-18.01	164.401	-44.8895	3.52777	125.333	-22.5475	-12.5151	115.503	-20.5238	15.0061	111.918	-44.2174	-0.490515	
